<?xml version="1.0" standalone="no"?>
<!DOCTYPE svg PUBLIC "-//W3C//DTD SVG 20010904//EN"
 "http://www.w3.org/TR/2001/REC-SVG-20010904/DTD/svg10.dtd">
<svg version="1.0" xmlns="http://www.w3.org/2000/svg"
 width="336.000000pt" height="304.000000pt" viewBox="0 0 336.000000 304.000000"
 preserveAspectRatio="xMidYMid meet">

<g transform="translate(0.000000,304.000000) scale(0.100000,-0.100000)"
fill="#000000" stroke="none">
<path d="M2613 3024 c-8 -20 8 -36 26 -25 15 10 8 41 -9 41 -6 0 -13 -7 -17
-16z"/>
<path d="M2215 2798 c-49 -49 -92 -72 -175 -93 -91 -24 -113 -38 -141 -89 -21
-40 -28 -46 -57 -46 -38 0 -98 -23 -125 -48 -53 -47 -71 -139 -42 -209 19 -46
6 -66 -39 -58 -18 3 -37 0 -46 -7 -23 -19 -60 -69 -60 -81 0 -6 6 -3 13 7 13
18 15 18 35 -5 12 -12 22 -29 22 -36 0 -17 -32 -17 -50 0 -12 10 -12 9 -1 -5
20 -26 46 -22 74 11 17 20 28 26 38 20 11 -6 -2 -25 -57 -80 l-71 -71 -25 25
-25 25 27 29 c21 21 26 33 20 48 -8 18 -9 18 -9 -5 -1 -13 -15 -39 -33 -57
-28 -29 -30 -35 -20 -58 13 -29 46 -33 74 -9 14 14 21 14 33 4 11 -9 13 -27
10 -74 l-4 -61 9 59 c8 51 7 63 -7 78 -16 18 -15 20 20 49 20 16 46 44 58 61
21 29 21 32 5 44 -22 16 -14 63 15 90 19 17 20 17 42 -4 19 -19 20 -24 7 -32
-8 -5 -26 -7 -40 -4 -22 4 -21 3 5 -9 27 -12 31 -12 43 5 10 14 17 16 32 8 10
-5 34 -10 53 -10 32 0 35 -3 47 -45 15 -52 59 -118 90 -135 12 -6 4 6 -18 28
-24 24 -46 60 -57 91 -9 29 -15 54 -14 55 2 2 22 10 44 18 58 22 105 93 105
160 0 48 -17 96 -48 131 -19 21 -10 30 48 47 59 17 83 12 150 -32 62 -41 65
-45 79 -103 7 -33 15 -62 17 -64 2 -2 17 2 33 8 66 28 96 -38 45 -98 -17 -20
-35 -31 -52 -31 -22 0 -30 -8 -45 -45 -21 -51 -81 -116 -129 -141 -18 -10 -55
-23 -83 -30 -28 -7 -39 -12 -25 -13 14 0 43 6 64 14 22 8 43 12 46 10 14 -9
91 68 114 113 l23 45 7 -99 6 -99 -35 -32 c-49 -46 -69 -43 -85 12 -7 25 -14
45 -17 45 -11 0 -138 -62 -164 -80 -27 -20 -185 -241 -162 -227 6 4 34 43 64
89 l54 82 7 -125 c5 -90 14 -149 33 -214 50 -166 65 -230 71 -301 l7 -70 -36
4 c-37 4 -57 -12 -38 -31 9 -9 11 -8 6 6 -9 22 16 22 100 3 60 -15 60 -14 119
17 32 17 98 67 146 112 l88 80 -2 241 c-1 225 0 243 18 263 35 39 95 18 122
-43 7 -17 13 -25 14 -17 0 28 -63 111 -111 147 -51 37 -134 74 -168 74 -23 0
-31 26 -31 105 l0 60 65 33 c35 19 83 54 106 79 41 45 42 46 35 105 -5 47 -2
68 13 102 11 23 23 54 27 70 6 26 5 27 -14 17 -27 -14 -55 -4 -46 18 4 9 9 43
11 76 l4 60 -15 -33 c-13 -28 -20 -33 -43 -30 -22 2 -27 7 -24 23 10 59 12
125 3 125 -6 0 -13 -9 -17 -20 -10 -31 -54 -60 -92 -60 l-35 0 7 40 c4 22 5
39 3 39 -1 -1 -21 -20 -43 -41z m-338 -273 c3 -9 -2 -24 -11 -34 -9 -10 -16
-22 -16 -27 0 -5 4 -2 10 6 5 8 12 11 17 7 4 -5 -3 -17 -17 -28 -14 -11 -18
-17 -8 -13 10 3 18 -1 21 -13 4 -15 5 -15 6 3 1 23 51 64 51 43 0 -7 3 -9 6
-6 4 4 1 13 -6 22 -17 20 -5 32 15 15 45 -37 59 -125 29 -182 -12 -24 -18 -28
-25 -17 -7 11 -9 9 -9 -7 0 -26 -15 -40 -53 -49 -27 -7 -27 -7 -29 46 l-2 54
-3 -52 c-4 -50 -5 -53 -32 -53 -15 0 -43 10 -62 23 -96 64 -88 204 14 259 41
22 96 23 104 3z m38 -45 c-3 -5 -11 -10 -16 -10 -6 0 -7 5 -4 10 3 6 11 10 16
10 6 0 7 -4 4 -10z m-276 -243 c6 -8 8 -17 5 -20 -9 -8 -44 11 -44 23 0 15 26
12 39 -3z m-25 -25 c15 -17 17 -67 3 -67 -3 0 -16 12 -30 26 -17 19 -22 31
-15 43 12 21 21 20 42 -2z m-104 -197 c0 -8 -4 -15 -8 -15 -13 0 -32 23 -32
37 0 11 5 11 20 3 11 -6 20 -17 20 -25z"/>
<path d="M1962 2420 c0 -14 2 -19 5 -12 2 6 2 18 0 25 -3 6 -5 1 -5 -13z"/>
<path d="M1783 2404 c-24 -14 -43 -27 -43 -30 0 -6 67 33 85 48 17 15 1 8 -42
-18z"/>
<path d="M1885 2407 c-11 -7 -24 -17 -30 -23 -5 -6 -31 -26 -57 -43 -27 -18
-48 -34 -48 -37 0 -2 23 11 52 31 38 25 54 31 60 22 5 -9 8 -7 8 4 0 9 6 22
14 28 12 10 15 7 19 -21 3 -29 4 -28 5 10 1 23 1 42 0 41 -2 0 -12 -6 -23 -12z"/>
<path d="M1952 2360 c0 -19 2 -27 5 -17 2 9 2 25 0 35 -3 9 -5 1 -5 -18z"/>
<path d="M1594 2191 c21 -23 26 -26 26 -11 0 5 -10 15 -22 21 -23 12 -23 12
-4 -10z"/>
<path d="M1291 2735 c-1 -11 -4 -31 -6 -45 l-6 -25 11 25 c6 13 9 33 7 45 -4
19 -4 19 -6 0z"/>
<path d="M1382 2713 l-38 -38 36 30 c19 16 39 33 45 37 5 5 6 8 2 8 -4 0 -25
-17 -45 -37z"/>
<path d="M304 2675 c-8 -21 2 -45 19 -45 20 0 40 27 33 45 -7 19 -45 20 -52 0z"/>
<path d="M1468 2633 c6 -2 18 -2 25 0 6 3 1 5 -13 5 -14 0 -19 -2 -12 -5z"/>
<path d="M1413 2623 c9 -2 23 -2 30 0 6 3 -1 5 -18 5 -16 0 -22 -2 -12 -5z"/>
<path d="M981 2511 c-10 -6 -5 -11 18 -16 18 -4 35 -4 38 -1 4 3 -4 6 -16 6
-12 0 -19 4 -16 10 8 12 -5 13 -24 1z"/>
<path d="M1375 2510 c3 -6 -4 -11 -17 -11 -16 -1 -18 -3 -6 -6 10 -2 25 0 34
5 15 8 15 10 0 15 -10 4 -15 3 -11 -3z"/>
<path d="M2074 2500 c16 -5 38 -17 50 -27 12 -10 9 -6 -6 10 -16 15 -38 27
-51 26 -19 -1 -18 -2 7 -9z"/>
<path d="M2019 2483 c-13 -16 -12 -17 4 -4 9 7 17 15 17 17 0 8 -8 3 -21 -13z"/>
<path d="M932 2424 c-18 -36 -29 -71 -26 -77 28 -49 298 -396 304 -390 6 7 88
137 129 203 39 65 -11 -2 -66 -88 -34 -53 -63 -89 -63 -78 0 15 -3 16 -14 7
-11 -10 -38 20 -144 161 -71 95 -131 180 -134 188 -3 8 8 41 24 74 16 32 28
60 26 62 -2 2 -19 -26 -36 -62z"/>
<path d="M1118 2483 c39 -2 105 -2 145 0 39 1 7 3 -73 3 -80 0 -112 -2 -72 -3z"/>
<path d="M1401 2485 c0 -5 9 -28 20 -50 10 -22 16 -29 13 -15 -7 28 -33 80
-33 65z"/>
<path d="M1071 2463 c-3 -39 9 -43 113 -41 l101 2 -99 5 c-87 5 -100 8 -107
26 -4 11 -8 15 -8 8z"/>
<path d="M1291 2450 c-1 -22 9 -29 74 -59 41 -18 75 -39 75 -45 0 -6 -10 -27
-23 -46 -35 -53 -71 -118 -53 -96 42 52 96 154 90 170 -5 12 -9 14 -14 6 -11
-18 -134 45 -142 72 -6 22 -6 22 -7 -2z"/>
<path d="M1020 2405 c-14 -8 -20 -14 -15 -14 6 0 21 6 35 14 14 8 21 14 15 14
-5 0 -21 -6 -35 -14z"/>
<path d="M1091 2394 c0 -11 3 -14 6 -6 3 7 2 16 -1 19 -3 4 -6 -2 -5 -13z"/>
<path d="M1275 2370 c-4 -17 -5 -34 -2 -36 2 -3 7 10 11 27 3 18 4 34 2 36 -2
3 -7 -10 -11 -27z"/>
<path d="M950 2375 c-14 -8 -20 -14 -15 -14 6 0 21 6 35 14 14 8 21 14 15 14
-5 0 -21 -6 -35 -14z"/>
<path d="M1101 2354 c0 -11 3 -14 6 -6 3 7 2 16 -1 19 -3 4 -6 -2 -5 -13z"/>
<path d="M2040 2361 c0 -9 30 -24 36 -18 2 1 -6 8 -16 15 -11 7 -20 8 -20 3z"/>
<path d="M1111 2314 c0 -11 3 -14 6 -6 3 7 2 16 -1 19 -3 4 -6 -2 -5 -13z"/>
<path d="M1256 2284 c-4 -20 -5 -38 -3 -40 3 -3 8 11 11 32 4 20 5 38 3 40 -3
3 -8 -11 -11 -32z"/>
<path d="M1121 2280 c0 -8 8 -46 18 -85 11 -38 19 -63 20 -55 0 8 -8 47 -18
85 -11 39 -19 63 -20 55z"/>
<path d="M1242 2210 c0 -14 2 -19 5 -12 2 6 2 18 0 25 -3 6 -5 1 -5 -13z"/>
<path d="M1965 2200 c-4 -6 -4 -14 -1 -17 3 -4 6 -1 6 5 0 7 5 12 10 12 6 0
10 -16 10 -35 0 -34 -14 -48 -23 -22 -2 7 -3 6 -3 -3 1 -8 9 -16 19 -18 16 -3
18 2 15 39 -3 42 -19 61 -33 39z"/>
<path d="M1232 2160 c0 -14 2 -19 5 -12 2 6 2 18 0 25 -3 6 -5 1 -5 -13z"/>
<path d="M1719 2110 c-3 -25 -9 -54 -13 -65 -4 -11 0 -7 9 8 9 16 15 43 13 65
l-3 37 -6 -45z"/>
<path d="M1161 2104 c0 -11 3 -14 6 -6 3 7 2 16 -1 19 -3 4 -6 -2 -5 -13z"/>
<path d="M1222 2100 c0 -14 2 -19 5 -12 2 6 2 18 0 25 -3 6 -5 1 -5 -13z"/>
<path d="M1171 2064 c0 -11 3 -14 6 -6 3 7 2 16 -1 19 -3 4 -6 -2 -5 -13z"/>
<path d="M1212 2045 c0 -16 2 -22 5 -12 2 9 2 23 0 30 -3 6 -5 -1 -5 -18z"/>
<path d="M1181 2024 c0 -11 3 -14 6 -6 3 7 2 16 -1 19 -3 4 -6 -2 -5 -13z"/>
<path d="M2886 1974 c-20 -20 -9 -44 20 -44 19 0 24 5 24 24 0 29 -24 40 -44
20z"/>
<path d="M1703 1910 c0 -30 2 -43 4 -27 2 15 2 39 0 55 -2 15 -4 2 -4 -28z"/>
<path d="M1574 1730 c0 -80 2 -112 3 -72 2 39 2 105 0 145 -1 39 -3 7 -3 -73z"/>
<path d="M1713 1815 c0 -22 2 -30 4 -17 2 12 2 30 0 40 -3 9 -5 -1 -4 -23z"/>
<path d="M2583 1750 c0 -25 2 -35 4 -22 2 12 2 32 0 45 -2 12 -4 2 -4 -23z"/>
<path d="M1723 1720 c0 -30 2 -43 4 -27 2 15 2 39 0 55 -2 15 -4 2 -4 -28z"/>
<path d="M330 1696 c-6 -8 -10 -25 -8 -38 2 -19 9 -23 38 -23 29 0 36 4 38 23
4 28 -14 52 -38 52 -10 0 -23 -7 -30 -14z"/>
<path d="M1760 1665 c-19 -19 -30 -35 -24 -35 5 0 22 16 37 35 36 45 30 45
-13 0z"/>
<path d="M2594 1530 c0 -91 2 -128 3 -82 2 45 2 119 0 165 -1 45 -3 8 -3 -83z"/>
<path d="M1875 1539 c-33 -34 -82 -72 -110 -85 -27 -13 -44 -24 -37 -24 19 0
72 29 114 62 31 26 105 108 96 108 -2 0 -30 -28 -63 -61z"/>
<path d="M1582 1550 c0 -14 2 -19 5 -12 2 6 2 18 0 25 -3 6 -5 1 -5 -13z"/>
<path d="M1430 1515 c0 -8 7 -15 15 -15 8 0 15 7 15 15 0 8 -7 15 -15 15 -8 0
-15 -7 -15 -15z"/>
<path d="M1590 1509 c0 -21 53 -79 72 -79 7 1 2 7 -11 14 -13 7 -32 29 -42 47
-10 19 -18 27 -19 18z"/>
<path d="M1688 1423 c7 -3 16 -2 19 1 4 3 -2 6 -13 5 -11 0 -14 -3 -6 -6z"/>
<path d="M3172 1368 c2 -15 10 -23 23 -23 30 0 27 39 -3 43 -20 3 -23 0 -20
-20z"/>
<path d="M2577 1322 c-11 -64 -59 -110 -184 -174 -59 -31 -137 -66 -173 -78
-47 -16 -81 -37 -128 -78 -34 -31 -77 -67 -94 -79 -33 -25 -31 -30 5 -11 12 6
33 13 46 14 18 2 10 -9 -40 -54 -199 -177 -278 -314 -266 -458 3 -42 1 -65 -7
-68 -6 -2 -4 -5 5 -5 9 -1 24 -13 34 -27 21 -33 89 -63 141 -64 39 0 150 27
142 35 -2 2 -26 -2 -53 -10 -110 -34 -197 -7 -235 70 -19 39 -22 58 -18 116
10 138 106 276 313 447 50 41 91 78 93 83 2 4 -7 10 -19 14 l-21 7 20 20 c18
18 35 21 139 23 117 2 145 8 265 59 13 6 17 1 21 -26 2 -18 2 10 -1 63 -4 76
-1 106 13 141 9 25 15 54 13 64 -2 11 -7 0 -11 -24z m-437 -342 c0 -5 -14 -20
-32 -35 -21 -18 -33 -23 -38 -15 -5 9 -9 9 -14 1 -4 -6 -12 -11 -18 -11 -6 0
-6 6 2 15 7 9 19 14 26 11 8 -3 21 8 30 24 15 25 44 32 44 10z"/>
<path d="M2013 1124 c16 -8 25 -20 21 -26 -5 -7 -2 -8 6 -3 10 6 8 12 -9 27
-13 10 -28 18 -35 18 -6 -1 2 -8 17 -16z"/>
<path d="M1607 1073 c-12 -11 -7 -33 8 -39 20 -8 45 13 38 32 -5 14 -34 19
-46 7z"/>
<path d="M1980 1041 c-25 -20 -97 -80 -160 -133 -63 -53 -141 -121 -172 -151
-55 -53 -118 -139 -118 -161 0 -6 12 9 26 34 14 25 51 71 82 103 85 87 230
209 236 198 8 -12 55 -20 62 -10 3 5 15 9 28 9 21 0 53 28 86 75 8 11 -4 3
-25 -17 -41 -38 -81 -58 -116 -58 -30 0 -22 17 15 30 37 12 66 40 90 88 9 17
15 32 14 31 -2 0 -23 -17 -48 -38z m11 -19 c-13 -25 -31 -39 -66 -52 -34 -13
-28 -5 30 39 47 36 49 36 36 13z"/>
<path d="M2550 1003 c0 -63 -28 -173 -54 -218 -16 -27 -79 -87 -175 -166 -82
-68 -147 -126 -145 -128 4 -4 220 174 281 232 l41 40 30 -22 c36 -25 66 -84
57 -111 -10 -32 -114 -110 -281 -210 -84 -51 -154 -95 -154 -97 0 -8 236 133
320 190 69 48 130 108 130 128 0 10 12 30 27 45 24 24 36 28 98 30 107 3 237
59 223 96 -5 11 -29 17 -95 21 -48 3 -119 15 -157 26 -78 23 -96 18 -116 -28
-11 -28 -44 -50 -56 -38 -3 3 2 29 10 58 18 58 33 189 22 189 -3 0 -6 -17 -6
-37z"/>
<path d="M100 896 c0 -8 4 -17 8 -20 13 -8 35 11 28 23 -10 16 -36 14 -36 -3z"/>
<path d="M1522 560 c0 -14 2 -19 5 -12 2 6 2 18 0 25 -3 6 -5 1 -5 -13z"/>
<path d="M1513 490 c0 -25 2 -35 4 -22 2 12 2 32 0 45 -2 12 -4 2 -4 -23z"/>
<path d="M1521 424 c0 -11 3 -14 6 -6 3 7 2 16 -1 19 -3 4 -6 -2 -5 -13z"/>
<path d="M1530 393 c0 -16 58 -63 78 -63 9 1 3 7 -14 14 -17 8 -39 24 -48 37
-9 13 -16 18 -16 12z"/>
<path d="M1648 323 c12 -2 32 -2 45 0 12 2 2 4 -23 4 -25 0 -35 -2 -22 -4z"/>
<path d="M2110 305 c-14 -8 -20 -14 -14 -15 5 0 19 7 30 15 24 18 16 19 -16 0z"/>
</g>
</svg>
